<svg width="200" height="200" viewBox="0 0 200 200" fill="none" xmlns="http://www.w3.org/2000/svg">
  <defs>
    <linearGradient id="primaryGrad" x1="0%" y1="0%" x2="100%" y2="100%">
      <stop offset="0%" style="stop-color:#6366F1;stop-opacity:1" />
      <stop offset="100%" style="stop-color:#06B6D4;stop-opacity:1" />
    </linearGradient>
    <linearGradient id="accentGrad" x1="0%" y1="0%" x2="100%" y2="100%">
      <stop offset="0%" style="stop-color:#818CF8;stop-opacity:1" />
      <stop offset="100%" style="stop-color:#22D3EE;stop-opacity:1" />
    </linearGradient>
    <radialGradient id="bgGlow" cx="50%" cy="50%" r="60%">
      <stop offset="0%" style="stop-color:#6366F1;stop-opacity:0.1" />
      <stop offset="100%" style="stop-color:#06B6D4;stop-opacity:0.05" />
    </radialGradient>
    <filter id="glow">
      <feGaussianBlur stdDeviation="3" result="coloredBlur"/>
      <feMerge>
        <feMergeNode in="coloredBlur"/>
        <feMergeNode in="SourceGraphic"/>
      </feMerge>
    </filter>
  </defs>
  
  <!-- Background Glow -->
  <circle cx="100" cy="100" r="95" fill="url(#bgGlow)"/>
  
  <!-- Main D Shape -->
  <path d="M50 40 L50 160 L90 160 C125 160 150 135 150 100 C150 65 125 40 90 40 L50 40 Z" fill="url(#primaryGrad)" filter="url(#glow)"/>
  
  <!-- Digital Cuts -->
  <path d="M95 70 L115 70 L105 90 L95 90 Z" fill="#0B0D17" opacity="0.8"/>
  <path d="M95 110 L115 110 L105 130 L95 130 Z" fill="#0B0D17" opacity="0.8"/>
  
  <!-- AI Network Nodes -->
  <circle cx="130" cy="60" r="6" fill="#06B6D4" opacity="0.9"/>
  <circle cx="150" cy="80" r="4" fill="#818CF8" opacity="0.9"/>
  <circle cx="140" cy="100" r="5" fill="#22D3EE" opacity="0.9"/>
  <circle cx="155" cy="120" r="3.5" fill="#6366F1" opacity="0.9"/>
  <circle cx="135" cy="140" r="4.5" fill="#06B6D4" opacity="0.9"/>
  
  <!-- Neural Connections -->
  <path d="M130 60 L150 80 M150 80 L140 100 M140 100 L155 120 M155 120 L135 140" 
        stroke="url(#accentGrad)" stroke-width="2" opacity="0.6" fill="none"/>
  
  <!-- Data Streams -->
  <rect x="60" y="60" width="25" height="3" fill="#6366F1" opacity="0.8" rx="1.5"/>
  <rect x="60" y="70" width="30" height="3" fill="#06B6D4" opacity="0.8" rx="1.5"/>
  <rect x="60" y="80" width="20" height="3" fill="#818CF8" opacity="0.8" rx="1.5"/>
  <rect x="60" y="90" width="35" height="3" fill="#22D3EE" opacity="0.8" rx="1.5"/>
  <rect x="60" y="110" width="28" height="3" fill="#6366F1" opacity="0.8" rx="1.5"/>
  <rect x="60" y="120" width="18" height="3" fill="#06B6D4" opacity="0.8" rx="1.5"/>
  <rect x="60" y="130" width="32" height="3" fill="#818CF8" opacity="0.8" rx="1.5"/>
  <rect x="60" y="140" width="22" height="3" fill="#22D3EE" opacity="0.8" rx="1.5"/>
</svg>