<svg width="200" height="200" viewBox="0 0 200 200" fill="none" xmlns="http://www.w3.org/2000/svg">
  <!-- Background Circle -->
  <circle cx="100" cy="100" r="95" fill="url(#gradient1)" opacity="0.1"/>
  
  <!-- Main Logo Shape - Abstract D inspired by original logo -->
  <path d="M60 60 L60 140 L90 140 C115 140 135 120 135 95 C135 70 115 50 90 50 L60 50 L60 60 Z" fill="url(#gradient2)" stroke="url(#gradient3)" stroke-width="2"/>
  
  <!-- Green accent circle (top right like original) -->
  <circle cx="145" cy="55" r="18" fill="#9ACD32" opacity="0.9"/>
  
  <!-- AI Neural Network Nodes -->
  <circle cx="120" cy="75" r="8" fill="#7B68EE"/>
  <circle cx="145" cy="85" r="6" fill="#9ACD32"/>
  <circle cx="135" cy="110" r="7" fill="#7B68EE"/>
  <circle cx="155" cy="100" r="5" fill="#9ACD32"/>
  
  <!-- Connection Lines -->
  <line x1="120" y1="75" x2="145" y2="85" stroke="url(#gradient3)" stroke-width="2" opacity="0.6"/>
  <line x1="145" y1="85" x2="155" y2="100" stroke="url(#gradient3)" stroke-width="2" opacity="0.6"/>
  <line x1="120" y1="75" x2="135" y2="110" stroke="url(#gradient3)" stroke-width="2" opacity="0.6"/>
  <line x1="135" y1="110" x2="155" y2="100" stroke="url(#gradient3)" stroke-width="2" opacity="0.6"/>
  
  <!-- Digital Elements -->
  <rect x="70" y="70" width="15" height="3" fill="#7B68EE" opacity="0.8"/>
  <rect x="70" y="80" width="20" height="3" fill="#9ACD32" opacity="0.8"/>
  <rect x="70" y="90" width="18" height="3" fill="#7B68EE" opacity="0.8"/>
  <rect x="70" y="100" width="22" height="3" fill="#9ACD32" opacity="0.8"/>
  <rect x="70" y="110" width="16" height="3" fill="#7B68EE" opacity="0.8"/>
  
  <!-- Gradients -->
  <defs>
    <linearGradient id="gradient1" x1="0%" y1="0%" x2="100%" y2="100%">
      <stop offset="0%" style="stop-color:#7B68EE;stop-opacity:1" />
      <stop offset="100%" style="stop-color:#9ACD32;stop-opacity:1" />
    </linearGradient>
    <linearGradient id="gradient2" x1="0%" y1="0%" x2="100%" y2="100%">
      <stop offset="0%" style="stop-color:#7B68EE;stop-opacity:0.9" />
      <stop offset="100%" style="stop-color:#9ACD32;stop-opacity:0.7" />
    </linearGradient>
    <linearGradient id="gradient3" x1="0%" y1="0%" x2="100%" y2="100%">
      <stop offset="0%" style="stop-color:#7B68EE;stop-opacity:1" />
      <stop offset="100%" style="stop-color:#9ACD32;stop-opacity:1" />
    </linearGradient>
  </defs>
</svg>
