<svg width="200" height="200" viewBox="0 0 200 200" fill="none" xmlns="http://www.w3.org/2000/svg">
  <defs>
    <linearGradient id="primaryGrad" x1="0%" y1="0%" x2="100%" y2="100%">
      <stop offset="0%" style="stop-color:#6366F1;stop-opacity:1" />
      <stop offset="100%" style="stop-color:#06B6D4;stop-opacity:1" />
    </linearGradient>
    <linearGradient id="accentGrad" x1="0%" y1="0%" x2="100%" y2="100%">
      <stop offset="0%" style="stop-color:#818CF8;stop-opacity:1" />
      <stop offset="100%" style="stop-color:#22D3EE;stop-opacity:1" />
    </linearGradient>
    <radialGradient id="bgGlow" cx="50%" cy="50%" r="60%">
      <stop offset="0%" style="stop-color:#6366F1;stop-opacity:0.15" />
      <stop offset="100%" style="stop-color:#06B6D4;stop-opacity:0.05" />
    </radialGradient>
    <filter id="mainGlow">
      <feGaussianBlur stdDeviation="4" result="coloredBlur"/>
      <feMerge>
        <feMergeNode in="coloredBlur"/>
        <feMergeNode in="SourceGraphic"/>
      </feMerge>
    </filter>
    <filter id="softGlow">
      <feGaussianBlur stdDeviation="2" result="coloredBlur"/>
      <feMerge>
        <feMergeNode in="coloredBlur"/>
        <feMergeNode in="SourceGraphic"/>
      </feMerge>
    </filter>
  </defs>
  
  <!-- Background Glow -->
  <circle cx="100" cy="100" r="90" fill="url(#bgGlow)"/>
  
  <!-- Main D Shape - Futuristic Design -->
  <path d="M50 50 L50 150 L85 150 C120 150 145 125 145 100 C145 75 120 50 85 50 L50 50 Z" fill="url(#primaryGrad)" filter="url(#mainGlow)"/>
  
  <!-- Digital Notches/Cuts -->
  <path d="M95 70 L110 70 L105 85 L95 85 Z" fill="#0B0D17" opacity="0.7"/>
  <path d="M95 115 L110 115 L105 130 L95 130 Z" fill="#0B0D17" opacity="0.7"/>
  
  <!-- AI Data Network -->
  <circle cx="130" cy="60" r="6" fill="#06B6D4" filter="url(#softGlow)"/>
  <circle cx="150" cy="80" r="4" fill="#818CF8" filter="url(#softGlow)"/>
  <circle cx="140" cy="100" r="5" fill="#22D3EE" filter="url(#softGlow)"/>
  <circle cx="155" cy="120" r="3.5" fill="#6366F1" filter="url(#softGlow)"/>
  <circle cx="135" cy="140" r="4.5" fill="#06B6D4" filter="url(#softGlow)"/>
  
  <!-- Neural Network Connections -->
  <path d="M130 60 L150 80 M150 80 L140 100 M140 100 L155 120 M155 120 L135 140" 
        stroke="url(#accentGrad)" stroke-width="2" opacity="0.7" fill="none"/>
  
  <!-- Digital Data Streams -->
  <rect x="60" y="65" width="20" height="2" fill="#6366F1" opacity="0.8" rx="1"/>
  <rect x="60" y="75" width="25" height="2" fill="#06B6D4" opacity="0.8" rx="1"/>
  <rect x="60" y="85" width="18" height="2" fill="#818CF8" opacity="0.8" rx="1"/>
  <rect x="60" y="95" width="28" height="2" fill="#22D3EE" opacity="0.8" rx="1"/>
  <rect x="60" y="105" width="22" height="2" fill="#6366F1" opacity="0.8" rx="1"/>
  <rect x="60" y="115" width="15" height="2" fill="#06B6D4" opacity="0.8" rx="1"/>
  <rect x="60" y="125" width="24" height="2" fill="#818CF8" opacity="0.8" rx="1"/>
  <rect x="60" y="135" width="19" height="2" fill="#22D3EE" opacity="0.8" rx="1"/>
</svg>
