<svg width="150" height="40" viewBox="0 0 150 40" fill="none" xmlns="http://www.w3.org/2000/svg">
  <defs>
    <linearGradient id="primaryGrad" x1="0%" y1="0%" x2="100%" y2="100%">
      <stop offset="0%" style="stop-color:#6366F1;stop-opacity:1" />
      <stop offset="100%" style="stop-color:#06B6D4;stop-opacity:1" />
    </linearGradient>
    <linearGradient id="textGrad" x1="0%" y1="0%" x2="100%" y2="0%">
      <stop offset="0%" style="stop-color:#818CF8;stop-opacity:1" />
      <stop offset="100%" style="stop-color:#22D3EE;stop-opacity:1" />
    </linearGradient>
    <filter id="glow">
      <feGaussianBlur stdDeviation="1.5" result="coloredBlur"/>
      <feMerge>
        <feMergeNode in="coloredBlur"/>
        <feMergeNode in="SourceGraphic"/>
      </feMerge>
    </filter>
  </defs>
  
  <!-- Modern D Shape with Digital Cut -->
  <path d="M4 8 L4 32 L14 32 C20 32 25 27 25 20 C25 13 20 8 14 8 L4 8 Z" fill="url(#primaryGrad)" filter="url(#glow)"/>
  
  <!-- Digital Cut/Notch in D -->
  <path d="M18 14 L22 14 L20 18 L18 18 Z" fill="#0B0D17" opacity="0.8"/>
  
  <!-- AI Data Points -->
  <circle cx="27" cy="12" r="1.5" fill="#06B6D4" opacity="0.9"/>
  <circle cx="29" cy="16" r="1" fill="#818CF8" opacity="0.8"/>
  <circle cx="27" cy="20" r="1.2" fill="#22D3EE" opacity="0.9"/>
  
  <!-- Neural Connections -->
  <path d="M25 14 L27 12 M27 12 L29 16 M29 16 L27 20" stroke="#6366F1" stroke-width="1" opacity="0.6" fill="none"/>
  
  <!-- Brand Text -->
  <text x="35" y="25" font-family="'Inter', sans-serif" font-size="13" font-weight="600" fill="url(#textGrad)">Digimetalab</text>
</svg>
