<?xml version="1.0" encoding="UTF-8"?>
<svg version="1.1" xmlns="http://www.w3.org/2000/svg" width="916" height="192">
<path d="M0 0 C12.55004679 4.46846554 22.36159833 12.16153014 28.51171875 24.12109375 C31.18249866 29.86678473 33.00530613 34.56825882 32.69921875 40.99609375 C33.29089844 40.79113281 33.88257813 40.58617187 34.4921875 40.375 C35.28238281 40.10558594 36.07257812 39.83617187 36.88671875 39.55859375 C37.66402344 39.29175781 38.44132812 39.02492187 39.2421875 38.75 C57.3664092 33.18883182 77.36712326 37.18947393 93.84545898 45.58886719 C111.76828893 55.34057498 123.72710245 71.38084367 130.01171875 90.68359375 C131.4800518 95.80752777 132.48440485 100.67244501 132.69921875 105.99609375 C132.73917969 106.83398438 132.77914062 107.671875 132.8203125 108.53515625 C133.32722476 129.22910396 126.25735189 148.55103928 112.10131836 163.69213867 C97.76268406 178.37569692 80.85664509 185.8289384 60.46777344 186.47119141 C39.9099416 186.6520209 22.16651235 180.89990641 6.69921875 166.99609375 C6.08820312 166.47789062 5.4771875 165.9596875 4.84765625 165.42578125 C-6.21176421 155.37635353 -15.50722525 138.16831956 -16.48146439 123.22462463 C-16.54614071 119.92740641 -16.54813196 116.63569125 -16.52783203 113.33789062 C-16.52827011 111.46345276 -16.52827011 111.46345276 -16.52871704 109.55114746 C-16.52756759 106.14667438 -16.51758043 102.7424479 -16.50356913 99.33801842 C-16.49101352 95.77194326 -16.48988748 92.20586435 -16.48751831 88.63977051 C-16.48131767 81.89680542 -16.46492616 75.15390566 -16.44481933 68.41096926 C-16.42241609 60.73016521 -16.4114558 53.04935794 -16.40142846 45.36852932 C-16.38055857 29.57767971 -16.34541033 13.78689518 -16.30078125 -2.00390625 C-11.613987 -4.34730338 -4.74261013 -1.44242699 0 0 Z M34.69921875 91.99609375 C29.15476162 99.94413203 26.92328078 107.55996282 28.109375 117.1953125 C30.04989183 126.40955466 35.13919301 132.59236401 42.69921875 137.99609375 C49.29646509 141.78096814 56.69754425 143.07582031 64.16015625 141.46484375 C73.15053814 138.98101452 79.26763471 134.58656056 84.69921875 126.99609375 C88.72157476 118.92212823 89.95149064 111.17847053 87.07421875 102.55859375 C83.27922286 92.93933335 78.07615051 87.46793084 68.69921875 82.99609375 C56.74351412 79.01085887 42.93773933 82.51759175 34.69921875 91.99609375 Z " fill="#6167E5" transform="translate(16.30078125,6.00390625)"/>
<path d="M0 0 C4.32339181 0.06109141 6.34549463 0.25841857 9.65625 3.10546875 C11.79103776 5.91271466 13.74475674 8.74718842 15.640625 11.71679688 C18.41010587 15.92047319 21.4896905 19.90482124 24.5 23.9375 C25.68778365 25.55222016 26.87407091 27.16804252 28.05859375 28.78515625 C29.05820526 30.14967758 30.0594224 31.51302461 31.0625 32.875 C31.57820557 33.61935303 32.09391113 34.36370605 32.62524414 35.13061523 C33.09953857 35.70626221 33.57383301 36.28190918 34.0625 36.875 C34.7225 36.875 35.3825 36.875 36.0625 36.875 C37.66967345 35.011845 37.66967345 35.011845 39.375 32.5 C40.08011719 31.50742188 40.78523438 30.51484375 41.51171875 29.4921875 C41.91052246 28.9259668 42.30932617 28.35974609 42.72021484 27.77636719 C45.35497526 24.04418928 48.02188712 20.33516782 50.6875 16.625 C51.22544189 15.86912598 51.76338379 15.11325195 52.31762695 14.33447266 C53.87572393 12.16281095 55.46286888 10.0161951 57.0625 7.875 C57.55548584 7.18664062 58.04847168 6.49828125 58.55639648 5.7890625 C61.11078073 2.45575342 62.23274992 1.05068931 66.45703125 0.15625 C67.58496094 0.2284375 68.71289062 0.300625 69.875 0.375 C71.58623047 0.45234375 71.58623047 0.45234375 73.33203125 0.53125 C76.0625 0.875 76.0625 0.875 77.0625 1.875 C77.16289611 4.45600756 77.19867269 7.01027897 77.19189453 9.59179688 C77.19452301 10.80392601 77.19452301 10.80392601 77.19720459 12.0405426 C77.20162376 14.7249666 77.19868489 17.40932528 77.1953125 20.09375 C77.19598552 21.95080579 77.19695553 23.8078615 77.19821167 25.66491699 C77.19968873 29.56226437 77.19753382 33.45958887 77.19287109 37.35693359 C77.1871738 42.364345 77.19045276 47.37170281 77.19644356 52.37911224 C77.20004895 56.21539721 77.19891069 60.05166937 77.19631577 63.88795471 C77.19564644 65.73482774 77.19647513 67.58170192 77.19879532 69.42857361 C77.20132149 72.00514832 77.19748177 74.58163501 77.19189453 77.15820312 C77.19391876 77.9291481 77.19594299 78.70009308 77.19802856 79.49440002 C77.17676255 84.76073745 77.17676255 84.76073745 76.0625 85.875 C73.75175832 85.97432392 71.43787058 86.00469618 69.125 86 C67.22427734 86.00386719 67.22427734 86.00386719 65.28515625 86.0078125 C62.0625 85.875 62.0625 85.875 60.0625 84.875 C59.7325 67.385 59.4025 49.895 59.0625 31.875 C53.6175 39.795 53.6175 39.795 48.0625 47.875 C47.4025 47.875 46.7425 47.875 46.0625 47.875 C45.85625 48.535 45.65 49.195 45.4375 49.875 C44.22076528 52.52969394 42.94698699 54.77855713 41.3125 57.1875 C40.84328125 57.88488281 40.3740625 58.58226562 39.890625 59.30078125 C38.0625 60.875 38.0625 60.875 35.0859375 61.3515625 C31.33843302 60.76087058 30.64279912 59.96349263 28.4375 56.9375 C27.77363281 56.04289062 27.10976563 55.14828125 26.42578125 54.2265625 C25.6360007 53.11080219 24.84847517 51.9934442 24.0625 50.875 C23.01448957 49.40352712 21.96630065 47.93218137 20.91796875 46.4609375 C18.30771651 42.78531565 15.72140189 39.09371398 13.15063477 35.39038086 C12.14488434 33.90340516 12.14488434 33.90340516 11.0625 32.875 C10.7325 50.035 10.4025 67.195 10.0625 84.875 C7.07566593 86.36841703 4.31850226 86.00675178 1 86 C-0.26972656 86.00257813 -1.53945313 86.00515625 -2.84765625 86.0078125 C-5.9375 85.875 -5.9375 85.875 -6.9375 84.875 C-7.03789611 82.29399244 -7.07367269 79.73972103 -7.06689453 77.15820312 C-7.06864685 76.35011703 -7.07039917 75.54203094 -7.07220459 74.7094574 C-7.07662376 72.0250334 -7.07368489 69.34067472 -7.0703125 66.65625 C-7.07098552 64.79919421 -7.07195553 62.9421385 -7.07321167 61.08508301 C-7.07468873 57.18773563 -7.07253382 53.29041113 -7.06787109 49.39306641 C-7.0621738 44.385655 -7.06545276 39.37829719 -7.07144356 34.37088776 C-7.07504895 30.53460279 -7.07391069 26.69833063 -7.07131577 22.86204529 C-7.07064644 21.01517226 -7.07147513 19.16829808 -7.07379532 17.32142639 C-7.07632149 14.74485168 -7.07248177 12.16836499 -7.06689453 9.59179688 C-7.06891876 8.8208519 -7.07094299 8.04990692 -7.07302856 7.25559998 C-7.04706571 0.82613118 -6.38344794 0.61078498 0 0 Z " fill="#FBFBFB" transform="translate(414.9375,75.125)"/>
<path d="M0 0 C0.804375 0.66 1.60875 1.32 2.4375 2 C3.4275 2.66 4.4175 3.32 5.4375 4 C6.0975 2.02 6.7575 0.04 7.4375 -2 C9.74993792 -2.02685412 12.0624627 -2.04632841 14.375 -2.0625 C15.66277344 -2.07410156 16.95054687 -2.08570312 18.27734375 -2.09765625 C21.4375 -2 21.4375 -2 22.4375 -1 C22.55242841 0.87419706 22.5971629 2.75273361 22.61450195 4.63037109 C22.63375481 6.43893082 22.63375481 6.43893082 22.65339661 8.2840271 C22.66078354 9.60053253 22.66817047 10.91703796 22.67578125 12.2734375 C22.67985678 12.94280964 22.6839323 13.61218178 22.68813133 14.30183792 C22.70903295 17.85470524 22.7233086 21.40753363 22.73266602 24.96044922 C22.74365156 28.60623968 22.77794604 32.25140634 22.81783772 35.89697838 C22.84419834 38.7179973 22.85237558 41.53887322 22.85594749 44.36000443 C22.86310313 46.3489278 22.88947477 48.33775272 22.91633606 50.32650757 C22.89480699 59.43119037 21.46978045 66.94619925 16.75 74.8125 C7.57914489 83.48763321 -2.01272008 86.55988562 -14.51953125 86.22265625 C-23.44431922 85.56962298 -31.3073376 82.77552815 -37.4375 76.125 C-41.24900354 71.44527242 -43.08681786 67.11704167 -42.5625 61 C-40.61658693 59.05408693 -37.40757544 59.56402339 -34.8125 59.4375 C-28.12554894 59.45099536 -28.12554894 59.45099536 -25.83984375 61.6796875 C-25.10928842 63.10937642 -24.40751315 64.55411575 -23.734375 66.01171875 C-22.27624561 68.48567829 -21.15787112 69.0929543 -18.5 70.125 C-12.72824739 71.61386081 -7.18102088 70.80185801 -1.5625 69 C2.66701233 65.95475113 4.25810767 63.03922175 5.4375 58 C5.4375 56.68 5.4375 55.36 5.4375 54 C4.40625 54.78375 3.375 55.5675 2.3125 56.375 C-4.58021802 61.6134657 -12.22776301 61.77555268 -20.5625 61 C-29.28147725 58.95782721 -35.52711168 53.91405336 -40.9375 46.9375 C-45.628576 38.45747801 -46.61585495 28.80781259 -44.33984375 19.40625 C-41.45817356 10.4861051 -35.80770232 3.28156994 -27.4140625 -1.12890625 C-18.815654 -4.53861997 -8.03669495 -5.37793872 0 0 Z M-24.5 17.3125 C-28.28996295 22.25093658 -29.11207819 26.84472433 -28.5625 33 C-26.67659369 38.43584759 -23.1945232 41.76811108 -18.5625 45 C-13.25325405 46.76974865 -8.4883605 46.69835764 -3.375 44.5 C1.06229495 42.0056626 3.63097413 38.74213042 5.4375 34 C6.42957035 28.36236944 5.69998334 23.78497556 2.4375 19 C-5.51669751 10.66703118 -15.45749372 10.19393123 -24.5 17.3125 Z " fill="#F9F9F9" transform="translate(337.5625,98)"/>
<path d="M0 0 C0.72241882 -0.0033284 1.44483765 -0.0066568 2.18914795 -0.01008606 C3.72928226 -0.01516522 5.26942764 -0.01749408 6.80957031 -0.01733398 C9.1206407 -0.0194836 11.43120412 -0.03752312 13.7421875 -0.05664062 C30.59434965 -0.12213139 45.41462856 1.43872687 58.421875 13.16796875 C64.30655848 19.23573127 68.62375931 27.67167161 68.921875 36.16796875 C68.97794922 37.65103516 68.97794922 37.65103516 69.03515625 39.1640625 C69.32309417 52.27281534 66.950583 63.21596452 57.671875 72.98046875 C50.93404619 79.29439442 44.06177486 82.87032865 34.921875 84.16796875 C33.6946875 84.34585938 32.4675 84.52375 31.203125 84.70703125 C24.55803227 85.42467935 17.87393988 85.31716773 11.19873047 85.29833984 C8.89934901 85.29291561 6.60015726 85.29834507 4.30078125 85.3046875 C2.8411454 85.30402781 1.38150967 85.30274892 -0.078125 85.30078125 C-0.76656494 85.30280548 -1.45500488 85.30482971 -2.16430664 85.30691528 C-6.96312973 85.28296402 -6.96312973 85.28296402 -8.078125 84.16796875 C-8.17852111 81.58696119 -8.21429769 79.03268978 -8.20751953 76.45117188 C-8.20927185 75.64308578 -8.21102417 74.83499969 -8.21282959 74.00242615 C-8.21724876 71.31800215 -8.21430989 68.63364347 -8.2109375 65.94921875 C-8.21161052 64.09216296 -8.21258053 62.23510725 -8.21383667 60.37805176 C-8.21531373 56.48070438 -8.21315882 52.58337988 -8.20849609 48.68603516 C-8.2027988 43.67862375 -8.20607776 38.67126594 -8.21206856 33.66385651 C-8.21567395 29.82757154 -8.21453569 25.99129938 -8.21194077 22.15501404 C-8.21127144 20.30814101 -8.21210013 18.46126683 -8.21442032 16.61439514 C-8.21694649 14.03782043 -8.21310677 11.46133374 -8.20751953 8.88476562 C-8.20954376 8.11382065 -8.21156799 7.34287567 -8.21365356 6.54856873 C-8.1847195 -0.61669404 -6.53836107 0.01042763 0 0 Z M8.921875 16.16796875 C8.921875 33.65796875 8.921875 51.14796875 8.921875 69.16796875 C29.27101946 69.99073961 29.27101946 69.99073961 45.921875 61.16796875 C51.61969103 54.33329631 52.39534883 46.35272063 51.734375 37.71875 C50.72893737 31.71754416 48.10696806 26.58414057 43.921875 22.16796875 C32.68362379 14.61586393 23.03913572 16.16796875 8.921875 16.16796875 Z " fill="#F9F9F9" transform="translate(186.078125,75.83203125)"/>
<path d="M0 0 C1.26972656 0.00257812 2.53945313 0.00515625 3.84765625 0.0078125 C5.11480469 0.00523438 6.38195312 0.00265625 7.6875 0 C10.91015625 0.1328125 10.91015625 0.1328125 12.91015625 1.1328125 C13.24015625 10.3728125 13.57015625 19.6128125 13.91015625 29.1328125 C16.88015625 26.6578125 16.88015625 26.6578125 19.91015625 24.1328125 C26.43532023 20.65974135 35.63279587 21.01671706 42.6796875 22.85546875 C52.6082774 27.033257 58.0326996 34.11534169 62.05859375 43.93359375 C64.34751791 52.53280881 64.27930019 63.74801922 60.37109375 71.85546875 C55.6210921 79.25988309 49.70397565 85.9528177 41.1328125 88.703125 C33.54830445 90.16937436 25.21421466 90.3444785 18.46484375 86.2890625 C16.39206127 84.74749563 14.59084252 83.09361315 12.91015625 81.1328125 C12.25015625 83.4428125 11.59015625 85.7528125 10.91015625 88.1328125 C8.78522484 88.15974825 6.66019713 88.17917878 4.53515625 88.1953125 C3.35179687 88.20691406 2.1684375 88.21851563 0.94921875 88.23046875 C-2.08984375 88.1328125 -2.08984375 88.1328125 -4.08984375 87.1328125 C-4.11296644 75.93708006 -4.13075846 64.74135326 -4.14165592 53.54560184 C-4.14688491 48.34753135 -4.15398285 43.14947714 -4.1652832 37.95141602 C-4.17611151 32.93938982 -4.18212046 27.92737932 -4.18472099 22.91534233 C-4.18657534 20.99868968 -4.19019615 19.08203793 -4.19557381 17.16539192 C-4.2027835 14.49053178 -4.20383472 11.81573736 -4.20336914 9.14086914 C-4.20696442 8.3403009 -4.21055969 7.53973267 -4.21426392 6.71490479 C-4.20187418 0.18061153 -4.20187418 0.18061153 0 0 Z M18.03515625 41.7890625 C13.13780585 47.34567161 12.55825074 51.86191622 12.62890625 59.18359375 C13.12500177 64.38570644 15.63164901 66.92159511 19.28515625 70.3828125 C24.15987624 73.63262583 28.23340957 74.61826472 33.95703125 73.66796875 C38.43484183 72.44104865 41.2148497 69.92207939 44.22265625 66.5078125 C47.0642125 60.8247 47.34227896 55.52912936 46.22265625 49.3203125 C44.30696821 44.66792725 42.35294686 42.01103287 38.03515625 39.3828125 C30.8606055 36.5129922 24.0976594 36.43385138 18.03515625 41.7890625 Z " fill="#F9F9F9" transform="translate(852.08984375,72.8671875)"/>
<path d="M0 0 C0.66 -1.98 1.32 -3.96 2 -6 C4.31243792 -6.02685412 6.6249627 -6.04632841 8.9375 -6.0625 C10.22527344 -6.07410156 11.51304687 -6.08570312 12.83984375 -6.09765625 C16 -6 16 -6 17 -5 C17.09925773 -3.04175302 17.12799414 -1.07990103 17.12939453 0.88085938 C17.13254669 2.13886353 17.13569885 3.39686768 17.13894653 4.69299316 C17.13715675 6.07657913 17.1351058 7.46016478 17.1328125 8.84375 C17.13348559 10.25240089 17.13445565 11.66105166 17.13571167 13.06970215 C17.13718842 16.02548323 17.13503483 18.98123414 17.13037109 21.93701172 C17.12467381 25.73374584 17.12795293 29.53040928 17.13394356 33.32714081 C17.13754979 36.23696428 17.1364103 39.14677088 17.13381577 42.05659485 C17.13314667 43.456894 17.13397432 44.85719467 17.13629532 46.25749207 C17.13882283 48.21137464 17.13429033 50.16526255 17.12939453 52.11914062 C17.12859894 53.23309204 17.12780334 54.34704346 17.12698364 55.49475098 C17 58 17 58 16 59 C13.64686445 59.07271741 11.29166332 59.08370868 8.9375 59.0625 C7.00197266 59.04896484 7.00197266 59.04896484 5.02734375 59.03515625 C4.02832031 59.02355469 3.02929688 59.01195312 2 59 C1.34 57.02 0.68 55.04 0 53 C-0.60328125 53.42152344 -1.2065625 53.84304687 -1.828125 54.27734375 C-3.02695312 55.09912109 -3.02695312 55.09912109 -4.25 55.9375 C-5.03890625 56.48277344 -5.8278125 57.02804688 -6.640625 57.58984375 C-12.73472748 61.23217984 -20.12812953 60.54430657 -27 60 C-36.44369767 57.49258244 -41.89057122 51.76088591 -46.703125 43.59765625 C-51.1639918 34.6624863 -51.57135634 24.09659284 -49.08984375 14.46875 C-45.46300054 5.23254477 -40.13466091 -1.79153122 -31 -6 C-19.64148462 -10.02920309 -9.20644759 -7.3930564 0 0 Z M-28.9375 13.4375 C-33.22837817 18.76859106 -33.48932447 22.9554445 -33.3828125 29.7265625 C-32.69608766 35.59876062 -30.14043095 39.20666596 -25.6875 42.9375 C-20.55985112 44.96471002 -16.1384553 45.63036283 -10.875 44 C-5.66213862 41.72193853 -2.34539051 38.08581056 -0.08203125 32.89453125 C1.68027257 26.85997575 0.83892526 21.5737566 -2 16 C-5.34382087 11.73222863 -9.54983022 9.07025075 -14.88671875 8.0546875 C-20.41529104 7.91161909 -24.75939311 9.97056024 -28.9375 13.4375 Z " fill="#F9F9F9" transform="translate(816,102)"/>
<path d="M0 0 C1.9375 1.75 1.9375 1.75 3 3 C3.33 0.69 3.66 -1.62 4 -4 C8.95 -4 13.9 -4 19 -4 C19.02255403 4.32729351 19.04091682 12.65456344 19.05181217 20.98187923 C19.05704026 24.84820118 19.06413654 28.71450121 19.07543945 32.58081055 C19.086271 36.30903401 19.0922774 40.03723634 19.09487724 43.76547432 C19.09673101 45.19089656 19.10035071 46.61631759 19.10573006 48.04173088 C19.11294393 50.03163408 19.11340808 52.02155834 19.11352539 54.01147461 C19.115746 55.14620712 19.11796661 56.28093964 19.12025452 57.45005798 C19 60 19 60 18 61 C15.81360547 61.07258946 13.62499611 61.08373783 11.4375 61.0625 C9.64119141 61.04896484 9.64119141 61.04896484 7.80859375 61.03515625 C6.41833984 61.01775391 6.41833984 61.01775391 5 61 C4.34 58.69 3.68 56.38 3 54 C2.49210938 54.40992188 1.98421875 54.81984375 1.4609375 55.2421875 C0.77257812 55.78101563 0.08421875 56.31984375 -0.625 56.875 C-1.29789063 57.40867188 -1.97078125 57.94234375 -2.6640625 58.4921875 C-9.49872125 62.90385686 -17.1379099 62.83215066 -25 62 C-33.44148117 59.44128311 -40.16028591 53.81938346 -44.3125 46.0625 C-49.13345098 35.24122377 -49.58810877 24.05058116 -45.4609375 12.8984375 C-41.7045375 5.44590059 -35.70320323 -0.75654601 -28 -4 C-18.02587798 -7.26176107 -8.63466696 -5.93633353 0 0 Z M-25.87109375 14.65625 C-30.53012167 19.929778 -31.36564678 24.16960317 -31.2734375 31.140625 C-30.79904699 36.10139431 -29.27127402 40.0660439 -25.421875 43.34375 C-20.99127264 46.13782356 -16.20941592 47.69343021 -10.95703125 46.55859375 C-4.81175198 44.54091294 -1.27451014 41.37322579 1.8125 35.625 C3.55441797 30.3075662 3.55441797 26.6924338 1.8125 21.375 C-0.68650594 16.72167859 -3.6352331 13.9098446 -8 11 C-14.52492816 9.30351868 -20.72799116 10.10369155 -25.87109375 14.65625 Z " fill="#FAFAFA" transform="translate(672,100)"/>
<path d="M0 0 C2.46416075 2.81186441 4.29611691 5.67916663 6 9 C6.33773437 9.62519531 6.67546875 10.25039062 7.0234375 10.89453125 C9.78837459 16.91905014 9.49647276 23.49811637 9 30 C7.42926468 31.57073532 5.84637782 31.16369307 3.66381836 31.20532227 C2.7429393 31.22526749 1.82206024 31.24521271 0.87327576 31.26576233 C-0.62827309 31.29083107 -0.62827309 31.29083107 -2.16015625 31.31640625 C-3.17975937 31.33718735 -4.19936249 31.35796844 -5.24986267 31.37937927 C-8.52067048 31.44498852 -11.79156137 31.50381234 -15.0625 31.5625 C-17.27409728 31.60567442 -19.48568603 31.64928834 -21.69726562 31.69335938 C-27.13142151 31.8006814 -32.56566082 31.90242623 -38 32 C-37.505 32.94875 -37.01 33.8975 -36.5 34.875 C-35 38 -35 38 -35 40 C-34.21625 40.309375 -33.4325 40.61875 -32.625 40.9375 C-30 42 -30 42 -28 43 C-23.40301468 43.42308538 -19.29346722 43.53894467 -15 41.75 C-12.63714352 39.90534179 -12.63714352 39.90534179 -11 36 C-5.06 36 0.88 36 7 36 C5.87772289 43.85593974 4.65267545 46.99871834 -1.34375 51.92578125 C-10.95782584 58.91915268 -19.43566779 59.88519913 -31 59 C-38.77032529 57.37389219 -44.84985179 52.95263679 -50 47 C-56.26343502 37.04427752 -57.72648824 26.38282842 -55.3515625 14.8515625 C-52.22668639 5.3166841 -46.38872591 -0.98620108 -37.66015625 -5.8046875 C-24.72892941 -11.61519471 -10.65391259 -9.20190152 0 0 Z M-36.375 12.5625 C-38.18490007 14.78909836 -38.18490007 14.78909836 -38 17 C-28.43 17 -18.86 17 -9 17 C-9.48999323 12.04979864 -9.48999323 12.04979864 -12.375 9.75 C-20.12145226 4.58569849 -30.10651093 5.79913022 -36.375 12.5625 Z " fill="#F9F9F9" transform="translate(560,103)"/>
<path d="M0 0 C1.37376679 0.00398964 2.74753489 0.01873698 4.12109375 0.04296875 C4.81912109 0.04361328 5.51714844 0.04425781 6.23632812 0.04492188 C11.41828217 0.09015717 11.41828217 0.09015717 12.55859375 1.23046875 C12.65281115 3.34728192 12.67602136 5.46727633 12.67211914 7.58618164 C12.67226517 8.24957047 12.67241119 8.91295929 12.67256165 9.59645081 C12.67186256 11.79870831 12.6640704 14.0008822 12.65625 16.203125 C12.65438581 17.72627211 12.65296191 19.24941982 12.65196228 20.77256775 C12.64813721 24.78884526 12.63830703 28.80508683 12.6272583 32.8213501 C12.61704394 36.91670241 12.61246461 41.01206051 12.60742188 45.10742188 C12.59668475 53.14845403 12.57960847 61.18945692 12.55859375 69.23046875 C14.18655884 69.22261353 14.18655884 69.22261353 15.84741211 69.21459961 C19.85977357 69.19655039 23.87213142 69.18503704 27.88452148 69.17553711 C29.62378543 69.17049671 31.36304511 69.16366445 33.10229492 69.1550293 C35.59685312 69.14295083 38.09135548 69.13723767 40.5859375 69.1328125 C41.36823227 69.12765121 42.15052704 69.12248993 42.95652771 69.11717224 C44.82426489 69.11697649 46.69188579 69.16847181 48.55859375 69.23046875 C49.55859375 70.23046875 49.55859375 70.23046875 49.65625 73.390625 C49.64464844 74.67839844 49.63304687 75.96617187 49.62109375 77.29296875 C49.61207031 78.58332031 49.60304688 79.87367188 49.59375 81.203125 C49.58214844 82.20214844 49.57054687 83.20117188 49.55859375 84.23046875 C47.08589351 85.46681887 45.44692803 85.3574066 42.68164062 85.35986328 C41.15996277 85.36459152 41.15996277 85.36459152 39.60754395 85.36941528 C38.50857788 85.36739105 37.40961182 85.36536682 36.27734375 85.36328125 C35.1529187 85.36423798 34.02849365 85.3651947 32.86999512 85.36618042 C30.48933862 85.36686183 28.10868028 85.36501024 25.72802734 85.36083984 C22.07385097 85.35549108 18.41979752 85.36078617 14.765625 85.3671875 C12.45703098 85.36652671 10.14843703 85.36524554 7.83984375 85.36328125 C6.74087769 85.36530548 5.64191162 85.36732971 4.50964355 85.36941528 C3.49519165 85.36626312 2.48073975 85.36311096 1.43554688 85.35986328 C0.54001099 85.35906769 -0.3555249 85.35827209 -1.27819824 85.35745239 C-3.44140625 85.23046875 -3.44140625 85.23046875 -5.44140625 84.23046875 C-5.48767815 73.57355653 -5.5232492 62.91666807 -5.54503059 52.25967598 C-5.55548279 47.31159043 -5.56966808 42.36357343 -5.59228516 37.41552734 C-5.61396248 32.64339394 -5.62596405 27.87132662 -5.63116074 23.0991478 C-5.63486571 21.27541945 -5.64210025 19.45169486 -5.65286636 17.62799454 C-5.66731346 15.08020363 -5.66938706 12.53268833 -5.66845703 9.98486328 C-5.67564758 9.22529327 -5.68283813 8.46572327 -5.69024658 7.68313599 C-5.66125738 0.37913074 -5.66125738 0.37913074 0 0 Z " fill="#F7F8F8" transform="translate(712.44140625,75.76953125)"/>
<path d="M0 0 C3.9290625 -0.0309375 3.9290625 -0.0309375 7.9375 -0.0625 C8.7637085 -0.071604 9.58991699 -0.08070801 10.44116211 -0.09008789 C12.29433759 -0.09723945 14.14749308 -0.0502852 16 0 C17 1 17 1 17.09765625 4.81640625 C17.09098089 6.39846682 17.07901875 7.98051159 17.0625 9.5625 C17.05798828 10.36880859 17.05347656 11.17511719 17.04882812 12.00585938 C17.03700518 14.00393756 17.01906914 16.00197783 17 18 C18.21558594 17.98839844 19.43117188 17.97679688 20.68359375 17.96484375 C22.26822764 17.95546722 23.85286318 17.94636687 25.4375 17.9375 C26.23994141 17.92912109 27.04238281 17.92074219 27.86914062 17.91210938 C29.91295221 17.9034857 31.95683902 17.9477185 34 18 C35 19 35 19 35.09765625 22.16015625 C35.06510417 25.7734375 35.03255208 29.38671875 35 33 C29.06 33 23.12 33 17 33 C17.07400065 37.36093469 17.15681516 41.71981611 17.26245117 46.07983398 C17.29569423 47.56279854 17.32372823 49.04588944 17.34643555 50.52905273 C17.37999468 52.66184293 17.43230638 54.79347612 17.48828125 56.92578125 C17.51446533 58.20880127 17.54064941 59.49182129 17.56762695 60.8137207 C17.74506072 63.94637947 17.74506072 63.94637947 19.33813477 65.91235352 C21.97570907 67.63857557 24.51897874 67.49414766 27.625 67.625 C33.91666667 67.91666667 33.91666667 67.91666667 35 69 C35.0989294 71.16480797 35.129711 73.33293785 35.125 75.5 C35.12886719 77.27890625 35.12886719 77.27890625 35.1328125 79.09375 C35 82 35 82 34 83 C13.74004346 84.21165248 13.74004346 84.21165248 6.0625 78.4375 C-0.71577354 71.50376148 -0.35806662 62.6267887 -0.26367188 53.47851562 C-0.23861587 51.96483817 -0.21322116 50.45116629 -0.1875 48.9375 C-0.17242519 47.38868489 -0.15874173 45.83985559 -0.14648438 44.29101562 C-0.11370138 40.52698822 -0.06207498 36.76365362 0 33 C-4.29 33 -8.58 33 -13 33 C-13.02685412 30.68756208 -13.04632841 28.3750373 -13.0625 26.0625 C-13.07410156 24.77472656 -13.08570313 23.48695312 -13.09765625 22.16015625 C-13 19 -13 19 -12 18 C-7.99779347 17.85644883 -4.00558317 17.95783597 0 18 C0 12.06 0 6.12 0 0 Z " fill="#F8F8F8" transform="translate(584,78)"/>
<path d="M0 0 C16.17 0 32.34 0 49 0 C49 15.18 49 30.36 49 46 C46.29120665 47.35439668 43.99066732 47.06501451 41 47 C40.67128906 46.19949219 40.67128906 46.19949219 40.3359375 45.3828125 C31.95097125 25.68155033 19.6536944 14.24922956 0 6 C0 4.02 0 2.04 0 0 Z " fill="#5DB1D2" transform="translate(100,0)"/>
<path d="M0 0 C5.28 0 10.56 0 16 0 C17.34531059 2.69062118 17.13456332 4.78231331 17.14526367 7.79492188 C17.15164352 9.0095813 17.15802338 10.22424072 17.16459656 11.47570801 C17.16570938 12.79341187 17.1668222 14.11111572 17.16796875 15.46875 C17.17118076 16.82873571 17.17454478 18.18872108 17.17805481 19.54870605 C17.184046 22.40015464 17.18589467 25.25157291 17.18530273 28.10302734 C17.185201 31.76180621 17.19886501 35.42039151 17.21607494 39.07912445 C17.22717657 41.88776549 17.22922253 44.69635941 17.22869301 47.50502014 C17.23045141 49.51145868 17.24130197 51.51788252 17.25224304 53.52429199 C17.24916641 54.73895142 17.24608978 55.95361084 17.24291992 57.20507812 C17.24434494 58.27826294 17.24576996 59.35144775 17.24723816 60.45715332 C17 63 17 63 15 65 C11.77734375 65.23046875 11.77734375 65.23046875 7.9375 65.1875 C6.66777344 65.18105469 5.39804687 65.17460937 4.08984375 65.16796875 C1 65 1 65 0 64 C-0.09405142 62.0056827 -0.11743249 60.00800457 -0.11352539 58.01147461 C-0.11344986 56.73022202 -0.11337433 55.44896942 -0.11329651 54.12889099 C-0.10818909 52.72004152 -0.10297309 51.31119244 -0.09765625 49.90234375 C-0.09579202 48.46887766 -0.09436814 47.03541093 -0.09336853 45.60194397 C-0.08954372 41.82240043 -0.07971377 38.0428951 -0.06866455 34.2633667 C-0.05844963 30.40930702 -0.05387074 26.55524118 -0.04882812 22.70117188 C-0.03809145 15.13409512 -0.02049497 7.56705777 0 0 Z " fill="#F7F7F7" transform="translate(375,96)"/>
<path d="M0 0 C1.48831242 0.00667405 2.97660807 0.01863442 4.46484375 0.03515625 C5.22345703 0.03966797 5.98207031 0.04417969 6.76367188 0.04882812 C8.64326246 0.06064945 10.52281274 0.07858547 12.40234375 0.09765625 C12.42547059 8.42494572 12.44326058 16.75222188 12.45415592 25.07953548 C12.45938401 28.94585743 12.46648029 32.81215746 12.4777832 36.6784668 C12.48861475 40.40669026 12.49462115 44.13489259 12.49722099 47.86313057 C12.49907476 49.28855281 12.50269446 50.71397384 12.50807381 52.13938713 C12.51528768 54.12929033 12.51575183 56.11921459 12.51586914 58.10913086 C12.51808975 59.24386337 12.52031036 60.37859589 12.52259827 61.54771423 C12.40234375 64.09765625 12.40234375 64.09765625 11.40234375 65.09765625 C9.09160207 65.19698017 6.77771433 65.22735243 4.46484375 65.22265625 C2.56412109 65.22652344 2.56412109 65.22652344 0.625 65.23046875 C-2.59765625 65.09765625 -2.59765625 65.09765625 -4.59765625 64.09765625 C-4.62078335 55.90075064 -4.63857321 47.70385857 -4.64946842 39.50692844 C-4.65469645 35.70114048 -4.66179263 31.89537477 -4.6730957 28.08959961 C-4.68392745 24.41973081 -4.68993369 20.74988347 -4.69253349 17.07999992 C-4.69438722 15.67690633 -4.69800685 14.27381396 -4.70338631 12.87072945 C-4.71060044 10.91195945 -4.71106434 8.95316805 -4.71118164 6.99438477 C-4.71340225 5.87741714 -4.71562286 4.76044952 -4.71791077 3.6096344 C-4.52809214 -0.35545783 -4.12919941 0.11208467 0 0 Z " fill="#F8F8F8" transform="translate(269.59765625,95.90234375)"/>
<path d="M0 0 C5.53846154 3.07692308 5.53846154 3.07692308 7 6 C7.39447548 10.18144011 7.45035186 12.30946048 5.125 15.875 C2.28058592 18.71941408 0.6112568 19.20354172 -3.3125 19.375 C-7.02449383 19.33315788 -7.85129077 19.10843381 -11 16.8125 C-13.03624634 13.94902858 -13.91284897 12.48604111 -14 9 C-13.20042216 5.72173085 -12.1384284 4.1463386 -9.8125 1.6875 C-6.18121002 -0.49127399 -4.17845873 -0.58645035 0 0 Z " fill="#F7F7F7" transform="translate(277,70)"/>
<path d="M0 0 C3.28870485 2.72721866 3.89723897 4.28067282 4.5 8.5 C3.9231981 12.53761333 2.85349783 14.14650217 0 17 C-3.50317094 18.75158547 -7.18694726 18.6837198 -11 18 C-14.63715985 14.95666217 -15.82298645 13.12108584 -16.5625 8.4375 C-15.91122095 4.45746138 -14.871325 2.78928714 -12 0 C-7.82016783 -1.39327739 -4.2488517 -1.10439467 0 0 Z " fill="#F7F7F7" transform="translate(389,71)"/>
<path d="M0 0 C1.75182812 1.75182812 1.12610303 4.04645033 1.13552856 6.38059998 C1.13350433 7.15154495 1.1314801 7.92248993 1.12939453 8.71679688 C1.13114685 9.52488297 1.13289917 10.33296906 1.13470459 11.1655426 C1.13912376 13.8499666 1.13618489 16.53432528 1.1328125 19.21875 C1.13348552 21.07580579 1.13445553 22.9328615 1.13571167 24.78991699 C1.13718873 28.68726437 1.13503382 32.58458887 1.13037109 36.48193359 C1.1246738 41.489345 1.12795276 46.49670281 1.13394356 51.50411224 C1.13754895 55.34039721 1.13641069 59.17666937 1.13381577 63.01295471 C1.13314644 64.85982774 1.13397513 66.70670192 1.13629532 68.55357361 C1.13882149 71.13014832 1.13498177 73.70663501 1.12939453 76.28320312 C1.13141876 77.0541481 1.13344299 77.82509308 1.13552856 78.61940002 C1.11426255 83.88573745 1.11426255 83.88573745 0 85 C-5.73611111 85.27314815 -5.73611111 85.27314815 -8 85 C-8.66 84.34 -9.32 83.68 -10 83 C-6.7 83 -3.4 83 0 83 C0 56.27 0 29.54 0 2 C-10.94772642 2.16437098 -10.94772642 2.16437098 -16 5 C-17.26804566 7.0335948 -17.26804566 7.0335948 -18 9 C-18 5.58267682 -17.18000233 3.83428117 -14.97265625 1.234375 C-10.6549244 -1.46741364 -4.88542872 -0.54512552 0 0 Z " fill="#E6EAE5" transform="translate(491,76)"/>
<path d="M0 0 C1.64574566 -0.02688151 3.29161413 -0.04634123 4.9375 -0.0625 C5.85402344 -0.07410156 6.77054688 -0.08570313 7.71484375 -0.09765625 C10 0 10 0 11 1 C11.0989294 3.16480797 11.129711 5.33293785 11.125 7.5 C11.12757813 8.6859375 11.13015625 9.871875 11.1328125 11.09375 C11 14 11 14 10 15 C8.07421875 15.16796875 8.07421875 15.16796875 5.6875 15.1875 C4.90761719 15.20167969 4.12773438 15.21585938 3.32421875 15.23046875 C1 15 1 15 -3 13 C0.96 13 4.92 13 9 13 C9 9.04 9 5.08 9 1 C6.03 1 3.06 1 0 1 C0 0.67 0 0.34 0 0 Z " fill="#D2D9D2" transform="translate(608,146)"/>
<path d="M0 0 C0.66 0.33 1.32 0.66 2 1 C1.33613281 1.56847656 0.67226563 2.13695313 -0.01171875 2.72265625 C-5.08304037 7.1572864 -9.37168746 11.31564368 -13 17 C-13.33 16.01 -13.66 15.02 -14 14 C-10.87643681 7.87049735 -5.60156921 3.75333572 0 0 Z " fill="#ECEDED" transform="translate(521,98)"/>
<path d="M0 0 C-2.69199029 1.79466019 -5.01325028 2.83443914 -8 4 C-9.34050052 4.65213539 -10.67661368 5.31379969 -12 6 C-11.05275873 3.63189682 -10.34708866 2.24792047 -8.25 0.75 C-5.42246362 -0.19251213 -2.96006696 -0.1345485 0 0 Z " fill="#E1E1E3" transform="translate(386,70)"/>
<path d="M0 0 C4.20626034 1.50223584 5.73900021 4.28550034 8 8 C7.67 8.66 7.34 9.32 7 10 C5.82739389 8.71372289 4.6620717 7.42080217 3.5 6.125 C2.8503125 5.40570313 2.200625 4.68640625 1.53125 3.9453125 C0 2 0 2 0 0 Z " fill="#E1E1E2" transform="translate(903,102)"/>
<path d="M0 0 C3.83736322 0.95934081 4.59660228 1.23609263 7 4 C6.67 4.99 6.34 5.98 6 7 C4.02 4.69 2.04 2.38 0 0 Z " fill="#53A9C2" transform="translate(123,18)"/>
</svg>
